<svg xmlns="http://www.w3.org/2000/svg" width="15" height="12" viewBox="0 0 15 12"><g fill="#C1C6CE"><path d="M3 8v4h4V8h2v4h4V8L8 3.516z"/><path d="M14.831 6.365L13 4.751V0h-2v2.987L8.332.635c-.02-.017-.043-.023-.064-.037a.465.465 0 0 0-.08-.047.551.551 0 0 0-.095-.024C8.062.521 8.032.515 8 .515c-.031 0-.061.006-.092.012a.46.46 0 0 0-.095.025c-.028.011-.053.029-.08.046-.021.014-.045.02-.064.037l-6.498 5.73a.501.501 0 0 0 .33.875.497.497 0 0 0 .331-.125L8 1.677l6.169 5.438a.501.501 0 0 0 .662-.75z"/></g></svg>