<svg xmlns="http://www.w3.org/2000/svg" width="44" height="65" viewBox="0 0 44 65"><g fill="#FFF"><path d="M37.91 30.438v10.869s.105 2.735-2.825 2.735c-3.069 0-3.125-2.735-3.125-2.735v-6.416c0-.24-.336-1.909-2.319-1.909-2.625 0-2.67 1.877-2.67 1.877V54.08s.029 1.863-2.464 1.863C22 55.943 22 53.96 22 53.96V40.016s0-2.945-3.805-2.945c-4.054 0-3.967 3.125-3.967 3.125v3.728s-.121 2.945-4.688 2.945-4.628-4.509-4.628-4.509V29.938C3.168 28.976 0 26.671 0 26.671v29.332S2.988 65 22 65s22-8.695 22-8.695V26.671c-2.938 2.829-6.09 3.767-6.09 3.767z"/><path d="M22 0C1.688 0 0 19.875 0 19.875v3.062C8.438 29.188 22 29 22 29s13.562.188 22-6.062v-3.062C44 19.875 42.312 0 22 0zm0 25c-11.75 0-14.312-2.375-14.312-2.375C13.938 19.75 22 19.875 22 19.875s8.062-.125 14.312 2.75c0 0-2.562 2.375-14.312 2.375zm0-12.375c-9.562 0-17.688 2.938-17.688 2.938C8.875 2.625 22 3.062 22 3.062s13.125-.438 17.688 12.5c0 0-8.126-2.937-17.688-2.937z"/></g></svg>