<svg xmlns="http://www.w3.org/2000/svg" width="75" height="61" viewBox="0 0 75 61"><g fill="#FFF"><path d="M5.039 58.949S5.039 61 6.907 61h27.02s2.001-.184 2.001-1.984V47.942H5.039v11.007zM73.875 8.016H60.387c-.621-2.287-2.071-3.891-3.762-3.891h-7.542v12.75h7.542c1.69 0 3.141-1.604 3.762-3.891h13.488c.575 0 1.042-1.112 1.042-2.484s-.467-2.484-1.042-2.484zM2.103 0C.167 0 0 2.041 0 2.041v15.812c0 2.936 2.903 3.002 2.903 3.002h9.007c1.935 0 1.601 1.334 1.601 1.334s-2.469 13.01-2.735 15.211c-.267 2.203-1.868 3.604-1.868 3.604s-2.135 1.201-3.002 1.668-.867 2.201-.867 2.201h30.889v-.734c0-1.467-6.472-3.135-9.073-3.402-2.602-.266-2.068-2.002-2.068-2.002l1.067-7.805h3.002l1.134-7.873h-3.002l.331-2.737 8.609-.131c5.805-.601 10.008-4.07 10.008-4.07V4.109C41.333.84 33.993 0 33.993 0H2.103zM36 4.938v.031c0 .55-.45 1-1 1H5.031c-.55 0-1-.45-1-1v-.031c0-.55.45-1 1-1H35c.55 0 1 .45 1 1z"/></g></svg>