<svg xmlns="http://www.w3.org/2000/svg" width="78" height="62" viewBox="0 0 78 62"><g fill="#FFF"><path d="M16.125 29.749C7.22 29.749 0 36.968 0 45.875 0 54.78 7.22 62 16.125 62S32.25 54.78 32.25 45.875c.001-8.907-7.219-16.126-16.125-16.126zm0 23.433a7.306 7.306 0 0 1-7.307-7.307 7.307 7.307 0 1 1 14.614 0 7.306 7.306 0 0 1-7.307 7.307zM60.854 45.874a8.062 8.062 0 0 0-8.062 8.062 8.062 8.062 0 1 0 16.124 0 8.06 8.06 0 0 0-8.062-8.062zm0 13.126a5.063 5.063 0 1 1 .002-10.126A5.063 5.063 0 0 1 60.854 59z"/><path d="M77.898 49.727s-2.023-15.102-2.461-18.414c-.547-4.141-3.625-4.688-3.625-4.688L66 25.946V14h-3v5.833h-4v5.295L47.188 23.75S37.438 3.688 36.626 1.875 33.5 0 33.5 0 11.125 2.375 8.75 3 5.312 6.167 5.312 6.167c-2.308 6.37-2.311 17.296-2.266 20.255a23.328 23.328 0 0 1 13.079-3.986c12.944 0 23.438 10.493 23.438 23.439 0 2.438-.373 4.789-1.064 7h10.164c.39-6.402 5.69-11.479 12.191-11.479s11.802 5.077 12.191 11.479H75c3.641 0 2.898-3.148 2.898-3.148zM23.083 19.833h-6.958V6.167h6.958v13.666zm10 0h-6.958V6.167h6.958v13.666zM53.016 36H49v-7h4.016v7zm7 0H56v-7h4.016v7zm7 0H63v-7h4.016v7z"/></g></svg>